<svg width="865" height="1146" viewBox="0 0 865 1146" fill="none" xmlns="http://www.w3.org/2000/svg">
<path d="M809.674 762.199C720.039 952.73 610.622 1015.2 515.347 1023.18C420.693 1030.94 340.249 984.866 307.683 958.307C197.093 867.502 97.6897 663.557 198.268 546.062C291.136 437.573 341.371 549.621 451.901 480.971C455.042 479.005 458.056 476.941 460.95 474.784C539.368 416.427 529.25 290.012 581.939 216.945C596.242 197.11 615.1 181.104 641.493 171.536C717.411 144.013 807.356 189.84 854.438 292.863C901.652 396.456 905.496 558.089 809.674 762.199Z" stroke="#D0E4FF" stroke-width="2.10293" stroke-miterlimit="10"/>
<path d="M795.448 762.079C714.171 935.575 614.719 993.398 527.685 1001.36C441.893 1008.86 368.586 967.913 338.058 943.504C235.526 861.528 143.555 674.523 232.401 564.025C314.001 462.538 360.474 559.104 460.785 494.983C463.676 493.135 466.444 491.179 469.113 489.154C541.246 434.559 535.496 320.439 585.603 255.153C599.285 237.326 616.984 222.947 641.325 214.542C713.32 189.681 795.768 232.738 838.403 327.73C881.299 423.862 883.354 573.595 795.448 762.079Z" stroke="#D0E4FF" stroke-width="2.10293" stroke-miterlimit="10"/>
<path d="M781.222 761.961C708.303 918.422 618.834 971.853 540.022 979.533C463.11 987.027 396.965 950.897 368.433 928.704C274.104 855.332 189.416 685.536 266.533 581.99C336.867 487.549 379.471 568.356 469.669 508.995C472.307 507.259 474.833 505.417 477.276 503.524C543.124 452.692 541.763 350.87 589.266 293.362C602.332 277.544 618.873 264.806 641.155 257.549C709.245 235.374 784.179 275.637 822.366 362.598C860.945 451.269 861.212 589.104 781.222 761.961Z" stroke="#D0E4FF" stroke-width="2.10293" stroke-miterlimit="10"/>
<path d="M766.995 761.843C702.688 901.421 622.938 950.128 552.359 957.708C484.316 965.014 425.348 933.874 398.806 913.902C312.703 849.109 235.278 696.612 300.664 599.954C359.741 512.62 398.457 577.577 478.551 523.008C480.936 521.383 483.219 519.656 485.438 517.895C544.999 470.824 548.057 381.308 592.928 331.571C605.385 317.762 620.768 306.683 640.984 300.556C705.188 281.099 772.766 318.437 806.328 397.466C840.774 478.574 839.355 604.784 766.995 761.843Z" stroke="#D0E4FF" stroke-width="2.10293" stroke-miterlimit="10"/>
<path d="M752.768 761.724C696.861 884.29 627.043 928.394 564.696 935.882C505.524 942.99 453.739 916.844 429.181 899.1C351.331 842.851 281.156 707.774 334.796 617.918C382.64 537.771 417.433 586.759 487.435 537.02C489.567 535.505 491.608 533.894 493.601 532.264C546.878 488.956 554.388 411.761 596.592 369.779C608.45 357.983 622.674 348.582 640.816 343.563C701.155 326.87 761.207 361.323 790.292 432.333C820.452 505.968 817.267 620.323 752.768 761.724Z" stroke="#D0E4FF" stroke-width="2.10293" stroke-miterlimit="10"/>
<path d="M738.542 761.605C691.018 867.148 631.15 906.645 577.034 914.057C526.732 920.947 482.14 899.802 459.555 884.298C389.992 836.546 327.075 719.055 368.929 635.882C405.588 563.031 436.39 595.89 496.319 551.033C498.197 549.627 499.997 548.134 501.764 546.635C548.755 507.089 560.764 442.244 600.255 407.988C611.526 398.211 624.588 390.509 640.647 386.57C697.148 372.71 749.636 404.218 774.255 467.201C800.12 533.368 795.166 635.852 738.542 761.605Z" stroke="#D0E4FF" stroke-width="2.10293" stroke-miterlimit="10"/>
<path d="M724.315 761.487C685.152 849.992 635.258 884.871 589.371 892.232C547.94 898.878 510.553 882.74 489.929 869.497C428.696 830.174 369.532 728.523 403.061 653.845C431.677 590.107 455.315 604.949 505.203 565.045C506.827 563.746 508.384 562.372 509.928 561.004C550.634 525.221 567.195 472.777 603.919 446.196C614.618 438.452 626.512 432.471 640.478 429.576C693.17 418.652 738.05 447.122 758.22 502.069C779.771 560.78 773.043 651.367 724.315 761.487Z" stroke="#D0E4FF" stroke-width="2.10293" stroke-miterlimit="10"/>
<path d="M710.089 761.369C679.25 832.815 639.363 863.055 601.709 870.407C569.145 876.765 538.983 865.648 520.304 854.696C467.451 823.705 419.338 742.093 437.193 671.81C451.884 613.98 474.188 613.91 514.086 579.058C515.454 577.863 516.772 576.611 518.09 575.375C552.511 543.354 573.682 503.403 607.582 484.405C617.726 478.721 628.443 474.481 640.309 472.584C689.221 464.762 726.437 490.041 742.183 536.937C759.398 588.205 750.883 666.859 710.089 761.369Z" stroke="#D0E4FF" stroke-width="2.10293" stroke-miterlimit="10"/>
<path d="M695.863 761.25C673.291 815.604 643.458 841.15 614.046 848.582C590.34 854.572 567.435 848.5 550.678 839.894C506.266 817.086 466.022 753.775 471.325 689.774C475.483 639.591 492.965 622.732 522.97 593.07C524.078 591.975 525.16 590.85 526.254 589.745C554.388 561.486 580.21 534.18 611.246 522.614C620.846 519.036 630.377 516.549 640.14 515.59C685.292 511.154 714.784 532.976 726.147 571.804C738.977 615.65 728.644 682.307 695.863 761.25Z" stroke="#D0E4FF" stroke-width="2.10293" stroke-miterlimit="10"/>
<path d="M505.457 707.739C499.306 663.164 512.567 628.612 534.417 604.116C556.267 579.619 586.705 565.177 614.909 560.823C672.779 551.889 701.751 570.23 710.111 606.672C718.47 643.114 706.217 697.659 681.637 761.132C657.057 824.604 616.974 839.957 581.054 825.092C545.134 810.228 513.379 765.143 505.457 707.739Z" stroke="#D0E4FF" stroke-width="2.10293" stroke-miterlimit="10"/>
</svg>
